<?xml version="1.0" encoding="utf-8"?>
<!-- Generator: Adobe Illustrator 26.0.3, SVG Export Plug-In . SVG Version: 6.00 Build 0)  -->
<svg version="1.1" xmlns="http://www.w3.org/2000/svg" xmlns:xlink="http://www.w3.org/1999/xlink" x="0px" y="0px"
	 viewBox="0 0 595.3 841.9" style="enable-background:new 0 0 595.3 841.9;" xml:space="preserve">
<style type="text/css">
	.st0{fill:#2977A6;}
	.st1{fill:#D80F16;}
	.st2{display:none;}
</style>
<g id="Livello_2">
</g>
<g id="Livello_1">
	<ellipse class="st0" cx="94" cy="176.1" rx="15.3" ry="15.2"/>
	<ellipse class="st1" cx="94" cy="135.4" rx="15.3" ry="15.2"/>
	<ellipse class="st0" cx="94" cy="257.4" rx="15.3" ry="15.2"/>
	<ellipse class="st0" cx="94" cy="216.7" rx="15.3" ry="15.2"/>
	<rect x="78.7" y="285.7" class="st1" width="425.7" height="2.9"/>
	<g>
		<path class="st0" d="M78.7,324.2v-23.8h4.9c3.6,0,6.2,0.3,7.8,0.9c2.3,0.8,4.1,2.2,5.4,4.2c1.3,2,2,4.4,2,7.1
			c0,2.4-0.5,4.5-1.5,6.3c-1,1.8-2.4,3.2-4,4c-1.6,0.9-4,1.3-6.9,1.3H78.7z M81,322h2.8c3.3,0,5.6-0.2,6.9-0.6
			c1.8-0.6,3.2-1.6,4.2-3.2c1-1.5,1.5-3.4,1.5-5.6c0-2.3-0.6-4.3-1.7-5.9c-1.1-1.6-2.7-2.7-4.7-3.4c-1.5-0.5-4-0.7-7.4-0.7H81V322z"
			/>
		<path class="st0" d="M103.1,300.4h2.4v23.8h-2.4V300.4z"/>
		<path class="st0" d="M117.6,319.8l2-1.2c1.4,2.6,3.1,3.9,4.9,3.9c0.8,0,1.6-0.2,2.3-0.6c0.7-0.4,1.2-0.9,1.6-1.5
			c0.4-0.6,0.6-1.3,0.6-2c0-0.8-0.3-1.6-0.8-2.4c-0.7-1.1-2.1-2.3-4.1-3.8c-2-1.5-3.2-2.6-3.7-3.3c-0.8-1.1-1.3-2.3-1.3-3.6
			c0-1,0.2-2,0.7-2.8c0.5-0.9,1.2-1.5,2.1-2c0.9-0.5,1.9-0.7,2.9-0.7c1.1,0,2.2,0.3,3.2,0.8c1,0.6,2,1.6,3.1,3.1l-1.9,1.5
			c-0.9-1.2-1.7-2-2.3-2.4c-0.6-0.4-1.3-0.6-2.1-0.6c-1,0-1.7,0.3-2.4,0.9c-0.6,0.6-0.9,1.3-0.9,2.2c0,0.5,0.1,1,0.3,1.5
			s0.6,1,1.2,1.6c0.3,0.3,1.3,1.1,3.1,2.4c2.1,1.5,3.5,2.9,4.2,4.1s1.2,2.4,1.2,3.6c0,1.7-0.7,3.2-2,4.5c-1.3,1.3-2.9,1.9-4.8,1.9
			c-1.4,0-2.8-0.4-3.9-1.2C119.7,322.9,118.6,321.6,117.6,319.8z"/>
		<path class="st0" d="M158.8,304.8l-1.9,1.4c-1-1.4-2.3-2.4-3.7-3.1c-1.5-0.7-3-1-4.8-1c-1.9,0-3.7,0.5-5.3,1.4
			c-1.6,0.9-2.9,2.1-3.8,3.7c-0.9,1.5-1.3,3.3-1.3,5.2c0,2.9,1,5.3,3,7.3c2,1.9,4.5,2.9,7.5,2.9c3.3,0,6.1-1.3,8.4-3.9l1.9,1.4
			c-1.2,1.5-2.7,2.7-4.5,3.5c-1.8,0.8-3.8,1.2-6,1.2c-4.2,0-7.5-1.4-9.9-4.2c-2-2.3-3-5.2-3-8.5c0-3.5,1.2-6.4,3.7-8.8
			c2.4-2.4,5.5-3.6,9.2-3.6c2.2,0,4.2,0.4,6,1.3C156.2,302,157.7,303.2,158.8,304.8z"/>
		<path class="st0" d="M173.4,300.4l11.1,23.8h-2.6l-3.8-7.8h-10.3l-3.7,7.8h-2.7l11.3-23.8H173.4z M173.1,305.4l-4.1,8.6h8.2
			L173.1,305.4z"/>
		<path class="st0" d="M188.3,300.4h4.8c2.6,0,4.4,0.1,5.4,0.3c1.4,0.3,2.6,1,3.5,2.1c0.9,1.1,1.3,2.4,1.3,3.9
			c0,1.3-0.3,2.4-0.9,3.4s-1.5,1.7-2.6,2.2s-2.7,0.8-4.7,0.8l8.6,11.1h-2.9l-8.6-11.1h-1.3v11.1h-2.4V300.4z M190.7,302.7v8.1l4.1,0
			c1.6,0,2.8-0.2,3.5-0.5c0.8-0.3,1.4-0.8,1.8-1.5s0.6-1.4,0.6-2.2c0-0.8-0.2-1.5-0.7-2.2c-0.4-0.7-1-1.1-1.7-1.4
			c-0.7-0.3-1.9-0.4-3.5-0.4H190.7z"/>
		<path class="st0" d="M208.3,300.4h11.9v2.3h-9.6v7.5h9.6v2.3h-9.6v11.7h-2.4V300.4z"/>
		<path class="st0" d="M235.8,299.8c3.6,0,6.6,1.2,9.1,3.6c2.4,2.4,3.6,5.4,3.6,8.9c0,3.5-1.2,6.5-3.6,8.9c-2.4,2.4-5.4,3.6-8.9,3.6
			c-3.5,0-6.5-1.2-9-3.6c-2.4-2.4-3.6-5.4-3.6-8.8c0-2.3,0.6-4.4,1.7-6.4s2.6-3.5,4.5-4.6C231.5,300.3,233.6,299.8,235.8,299.8z
			 M235.9,302.1c-1.8,0-3.4,0.5-5,1.4c-1.6,0.9-2.8,2.2-3.7,3.7c-0.9,1.6-1.3,3.3-1.3,5.2c0,2.8,1,5.2,2.9,7.2c2,2,4.3,2.9,7.1,2.9
			c1.9,0,3.6-0.4,5.1-1.3c1.6-0.9,2.8-2.1,3.7-3.7c0.9-1.6,1.3-3.3,1.3-5.2c0-1.9-0.4-3.6-1.3-5.1c-0.9-1.5-2.1-2.8-3.7-3.7
			C239.4,302.5,237.7,302.1,235.9,302.1z"/>
		<path class="st0" d="M253.3,324.2v-23.8h0.5l15.9,18.3v-18.3h2.4v23.8h-0.5l-15.7-18.1v18.1H253.3z"/>
		<path class="st0" d="M277.9,300.4h13.7v2.3h-11.3v7.5h11.2v2.3h-11.2v9.4h11.2v2.3h-13.6V300.4z"/>
		<path class="st0" d="M302.4,319.8l2-1.2c1.4,2.6,3.1,3.9,4.9,3.9c0.8,0,1.6-0.2,2.3-0.6c0.7-0.4,1.2-0.9,1.6-1.5
			c0.4-0.6,0.6-1.3,0.6-2c0-0.8-0.3-1.6-0.8-2.4c-0.7-1.1-2.1-2.3-4.1-3.8c-2-1.5-3.2-2.6-3.7-3.3c-0.8-1.1-1.3-2.3-1.3-3.6
			c0-1,0.2-2,0.7-2.8s1.2-1.5,2.1-2c0.9-0.5,1.9-0.7,2.9-0.7c1.1,0,2.2,0.3,3.2,0.8c1,0.6,2,1.6,3.1,3.1l-1.9,1.5
			c-0.9-1.2-1.7-2-2.3-2.4c-0.6-0.4-1.3-0.6-2.1-0.6c-1,0-1.7,0.3-2.4,0.9c-0.6,0.6-0.9,1.3-0.9,2.2c0,0.5,0.1,1,0.3,1.5
			c0.2,0.5,0.6,1,1.2,1.6c0.3,0.3,1.3,1.1,3.1,2.4c2.1,1.5,3.5,2.9,4.2,4.1c0.8,1.2,1.2,2.4,1.2,3.6c0,1.7-0.7,3.2-2,4.5
			c-1.3,1.3-2.9,1.9-4.8,1.9c-1.4,0-2.8-0.4-3.9-1.2C304.5,322.9,303.4,321.6,302.4,319.8z"/>
		<path class="st0" d="M319,302.7v-2.3h13.1v2.3h-5.3v21.5h-2.4v-21.5H319z"/>
		<path class="st0" d="M335.5,300.4h13.7v2.3h-11.3v7.5h11.2v2.3h-11.2v9.4h11.2v2.3h-13.6V300.4z"/>
		<path class="st0" d="M353.3,300.4h11.9v2.3h-9.6v7.5h9.6v2.3h-9.6v11.7h-2.4V300.4z"/>
		<path class="st0" d="M379.2,300.4l11.1,23.8h-2.6l-3.8-7.8h-10.3l-3.7,7.8h-2.7l11.3-23.8H379.2z M378.9,305.4l-4.1,8.6h8.2
			L378.9,305.4z"/>
		<path class="st0" d="M394,324.2v-23.8h0.5l15.9,18.3v-18.3h2.4v23.8h-0.5l-15.7-18.1v18.1H394z"/>
		<path class="st0" d="M429.9,299.8c3.6,0,6.6,1.2,9.1,3.6c2.4,2.4,3.6,5.4,3.6,8.9c0,3.5-1.2,6.5-3.6,8.9c-2.4,2.4-5.4,3.6-8.9,3.6
			c-3.5,0-6.5-1.2-9-3.6c-2.4-2.4-3.6-5.4-3.6-8.8c0-2.3,0.6-4.4,1.7-6.4s2.6-3.5,4.5-4.6C425.6,300.3,427.7,299.8,429.9,299.8z
			 M430,302.1c-1.8,0-3.4,0.5-5,1.4c-1.6,0.9-2.8,2.2-3.7,3.7c-0.9,1.6-1.3,3.3-1.3,5.2c0,2.8,1,5.2,2.9,7.2c2,2,4.3,2.9,7.1,2.9
			c1.9,0,3.6-0.4,5.1-1.3c1.6-0.9,2.8-2.1,3.7-3.7c0.9-1.6,1.3-3.3,1.3-5.2c0-1.9-0.4-3.6-1.3-5.1c-0.9-1.5-2.1-2.8-3.7-3.7
			C433.5,302.5,431.8,302.1,430,302.1z"/>
		<path class="st0" d="M454.1,319.8l2-1.2c1.4,2.6,3.1,3.9,4.9,3.9c0.8,0,1.6-0.2,2.3-0.6c0.7-0.4,1.2-0.9,1.6-1.5
			c0.4-0.6,0.6-1.3,0.6-2c0-0.8-0.3-1.6-0.8-2.4c-0.7-1.1-2.1-2.3-4.1-3.8c-2-1.5-3.2-2.6-3.7-3.3c-0.8-1.1-1.3-2.3-1.3-3.6
			c0-1,0.2-2,0.7-2.8c0.5-0.9,1.2-1.5,2.1-2c0.9-0.5,1.9-0.7,2.9-0.7c1.1,0,2.2,0.3,3.2,0.8c1,0.6,2,1.6,3.1,3.1l-1.9,1.5
			c-0.9-1.2-1.7-2-2.3-2.4c-0.6-0.4-1.3-0.6-2.1-0.6c-1,0-1.7,0.3-2.4,0.9c-0.6,0.6-0.9,1.3-0.9,2.2c0,0.5,0.1,1,0.3,1.5
			c0.2,0.5,0.6,1,1.2,1.6c0.3,0.3,1.3,1.1,3.1,2.4c2.1,1.5,3.5,2.9,4.2,4.1c0.8,1.2,1.2,2.4,1.2,3.6c0,1.7-0.7,3.2-2,4.5
			c-1.3,1.3-2.9,1.9-4.8,1.9c-1.4,0-2.8-0.4-3.9-1.2C456.2,322.9,455.1,321.6,454.1,319.8z"/>
		<path class="st0" d="M473.3,300.4h4.8c2.6,0,4.4,0.1,5.4,0.3c1.4,0.3,2.6,1,3.5,2.1c0.9,1.1,1.3,2.4,1.3,3.9
			c0,1.3-0.3,2.4-0.9,3.4s-1.5,1.7-2.6,2.2c-1.1,0.5-2.7,0.8-4.7,0.8l8.6,11.1h-2.9l-8.6-11.1h-1.3v11.1h-2.4V300.4z M475.7,302.7
			v8.1l4.1,0c1.6,0,2.8-0.2,3.5-0.5c0.8-0.3,1.4-0.8,1.8-1.5s0.6-1.4,0.6-2.2c0-0.8-0.2-1.5-0.7-2.2c-0.4-0.7-1-1.1-1.7-1.4
			c-0.7-0.3-1.9-0.4-3.5-0.4H475.7z"/>
		<path class="st0" d="M493.3,300.4h2.4v21.5h9.2v2.3h-11.6V300.4z"/>
	</g>
	<g>
		<path class="st0" d="M133.1,163.6h13.7V182c4.8-6.8,9.6-11.7,14.7-14.8c6.9-4.2,14.2-6.3,21.8-6.3c5.1,0,10,1,14.7,3
			c4.6,2,8.4,4.7,11.4,8.1c2.9,3.4,5.5,8.2,7.6,14.4c4.5-8.3,10.2-14.7,17.1-19c6.8-4.3,14.2-6.5,22-6.5c7.3,0,13.8,1.9,19.4,5.6
			c5.6,3.7,9.8,8.9,12.5,15.5c2.7,6.6,4.1,16.6,4.1,29.9v58h-14v-58c0-11.4-0.8-19.2-2.4-23.5c-1.6-4.3-4.4-7.7-8.3-10.3
			s-8.6-3.9-14.1-3.9c-6.6,0-12.7,2-18.2,5.9c-5.5,3.9-9.5,9.1-12,15.6s-3.8,17.4-3.8,32.6v41.6h-13.7v-54.4
			c0-12.8-0.8-21.5-2.4-26.1c-1.6-4.6-4.4-8.3-8.3-11c-4-2.8-8.7-4.1-14.2-4.1c-6.3,0-12.2,1.9-17.7,5.7c-5.5,3.8-9.6,8.9-12.2,15.4
			c-2.6,6.4-4,16.3-4,29.6v45h-13.7V163.6z"/>
		<path class="st0" d="M410.3,234.6l11.5,6.1c-3.8,7.4-8.2,13.4-13.1,18c-5,4.6-10.5,8-16.7,10.4c-6.2,2.4-13.2,3.6-21,3.6
			c-17.3,0-30.9-5.7-40.7-17c-9.8-11.4-14.7-24.2-14.7-38.5c0-13.5,4.1-25.5,12.4-36c10.5-13.4,24.5-20.1,42.1-20.1
			c18.1,0,32.6,6.9,43.4,20.6c7.7,9.7,11.6,21.8,11.7,36.3h-95.6c0.3,12.3,4.2,22.5,11.8,30.4s17.1,11.8,28.3,11.8
			c5.4,0,10.7-0.9,15.8-2.8c5.1-1.9,9.5-4.4,13.1-7.5C402.3,246.6,406.1,241.6,410.3,234.6z M410.3,206c-1.8-7.3-4.5-13.1-8-17.5
			c-3.5-4.4-8.1-7.9-13.8-10.5c-5.7-2.7-11.8-4-18.1-4c-10.4,0-19.4,3.4-26.9,10.1c-5.5,4.9-9.6,12.2-12.4,22H410.3z"/>
		<path class="st0" d="M504.3,175.2l-8.8,9.1c-7.3-7.1-14.5-10.6-21.4-10.6c-4.4,0-8.2,1.5-11.4,4.4c-3.2,2.9-4.8,6.3-4.8,10.3
			c0,3.5,1.3,6.7,3.9,9.9c2.6,3.2,8.1,6.9,16.4,11.2c10.2,5.3,17.1,10.4,20.8,15.2c3.6,4.9,5.4,10.5,5.4,16.7
			c0,8.7-3.1,16.1-9.2,22.2c-6.1,6.1-13.8,9.1-23,9.1c-6.1,0-12-1.3-17.6-4c-5.6-2.7-10.2-6.3-13.8-11l8.6-9.8
			c7,7.9,14.4,11.8,22.2,11.8c5.5,0,10.1-1.8,14-5.3c3.9-3.5,5.8-7.7,5.8-12.4c0-3.9-1.3-7.4-3.8-10.5c-2.5-3-8.3-6.8-17.2-11.3
			c-9.6-4.9-16.1-9.8-19.6-14.7c-3.5-4.8-5.2-10.3-5.2-16.5c0-8.1,2.8-14.8,8.3-20.1c5.5-5.3,12.5-8,20.9-8
			C484.5,160.9,494.4,165.6,504.3,175.2z"/>
	</g>
	<g>
		<path class="st1" d="M436.9,135.4v14.7h-1.3v-1.8c-0.6,0.7-1.2,1.2-1.9,1.6c-0.7,0.4-1.5,0.5-2.3,0.5c-1.5,0-2.8-0.5-3.9-1.6
			c-1.1-1.1-1.6-2.4-1.6-4c0-1.5,0.5-2.8,1.6-3.9c1.1-1.1,2.4-1.6,3.9-1.6c0.9,0,1.7,0.2,2.4,0.6c0.7,0.4,1.3,0.9,1.9,1.7v-6.1
			H436.9z M431.5,140.6c-0.8,0-1.5,0.2-2.1,0.6c-0.6,0.4-1.2,0.9-1.5,1.6c-0.4,0.7-0.6,1.4-0.6,2.1c0,0.7,0.2,1.5,0.6,2.1
			c0.4,0.7,0.9,1.2,1.5,1.6c0.6,0.4,1.3,0.6,2.1,0.6c0.7,0,1.5-0.2,2.1-0.6c0.7-0.4,1.2-0.9,1.5-1.5c0.4-0.6,0.5-1.4,0.5-2.2
			c0-1.2-0.4-2.3-1.2-3.1C433.6,141,432.7,140.6,431.5,140.6z"/>
		<path class="st1" d="M450.6,139.5v10.6h-1.3v-1.8c-0.6,0.7-1.2,1.2-1.9,1.6c-0.7,0.4-1.5,0.5-2.3,0.5c-1.5,0-2.8-0.5-3.9-1.6
			c-1.1-1.1-1.6-2.4-1.6-4c0-1.5,0.5-2.8,1.6-3.9s2.4-1.6,3.9-1.6c0.9,0,1.7,0.2,2.4,0.6c0.7,0.4,1.3,0.9,1.9,1.7v-2H450.6z
			 M445.2,140.6c-0.8,0-1.5,0.2-2.1,0.6c-0.6,0.4-1.2,0.9-1.5,1.6c-0.4,0.7-0.6,1.4-0.6,2.1c0,0.7,0.2,1.5,0.6,2.1
			c0.4,0.7,0.9,1.2,1.5,1.6c0.6,0.4,1.3,0.6,2.1,0.6c0.7,0,1.5-0.2,2.1-0.6c0.7-0.4,1.2-0.9,1.5-1.5c0.4-0.6,0.5-1.4,0.5-2.2
			c0-1.2-0.4-2.3-1.2-3.1C447.3,141,446.3,140.6,445.2,140.6z"/>
		<path class="st1" d="M453.5,135.4h1.4v14.7h-1.4V135.4z"/>
		<path class="st1" d="M465.4,135.8h2.8v14.4h-1.4v-13h-2.3L465.4,135.8z"/>
		<path class="st1" d="M476.6,150.5l-1.2-0.8l3.9-5.9c-0.5,0.2-1,0.3-1.5,0.3c-1.1,0-2.1-0.4-2.9-1.2c-0.8-0.8-1.2-1.8-1.2-3
			c0-0.8,0.2-1.6,0.6-2.2c0.4-0.7,0.9-1.2,1.6-1.6c0.7-0.4,1.5-0.6,2.3-0.6c0.8,0,1.5,0.2,2.2,0.6c0.7,0.4,1.2,0.9,1.6,1.6
			c0.4,0.7,0.6,1.4,0.6,2.2c0,0.6-0.1,1.2-0.4,1.9c-0.2,0.6-0.7,1.4-1.3,2.3L476.6,150.5z M478.2,142.9c0.8,0,1.6-0.3,2.1-0.9
			c0.6-0.6,0.9-1.3,0.9-2.1s-0.3-1.5-0.9-2.1c-0.6-0.6-1.3-0.9-2.1-0.9c-0.8,0-1.5,0.3-2.1,0.9c-0.6,0.6-0.9,1.3-0.9,2.1
			s0.3,1.5,0.9,2.1C476.7,142.6,477.4,142.9,478.2,142.9z"/>
		<path class="st1" d="M491.2,135.4l1.2,0.8l-3.9,5.9c0.5-0.2,1-0.3,1.5-0.3c1.1,0,2.1,0.4,2.9,1.2c0.8,0.8,1.2,1.8,1.2,3
			c0,0.8-0.2,1.6-0.6,2.2c-0.4,0.7-0.9,1.2-1.6,1.6c-0.7,0.4-1.5,0.6-2.3,0.6c-0.8,0-1.5-0.2-2.2-0.6c-0.7-0.4-1.2-0.9-1.6-1.6
			c-0.4-0.7-0.6-1.4-0.6-2.2c0-0.6,0.1-1.2,0.4-1.9c0.2-0.6,0.7-1.4,1.3-2.3L491.2,135.4z M489.6,143.1c-0.8,0-1.5,0.3-2.1,0.9
			c-0.6,0.6-0.9,1.3-0.9,2.1c0,0.8,0.3,1.5,0.9,2.1c0.6,0.6,1.3,0.9,2.1,0.9c0.8,0,1.5-0.3,2.1-0.9c0.6-0.6,0.9-1.3,0.9-2.1
			c0-0.8-0.3-1.6-0.9-2.1C491.2,143.4,490.5,143.1,489.6,143.1z"/>
		<path class="st1" d="M497.3,140.3h-1.4c0-1.4,0.5-2.6,1.4-3.5c0.9-0.9,2-1.4,3.4-1.4c1.3,0,2.4,0.4,3.2,1.3c0.8,0.9,1.2,1.9,1.2,3
			c0,0.8-0.2,1.6-0.6,2.3c-0.4,0.7-1.1,1.7-2.3,2.9l-3.6,3.9h6.6v1.4h-9.8l5.5-5.9c1.1-1.2,1.8-2.1,2.2-2.7c0.3-0.6,0.5-1.2,0.5-1.8
			c0-0.8-0.3-1.5-0.9-2.1c-0.6-0.6-1.3-0.9-2.2-0.9c-0.9,0-1.7,0.3-2.3,0.9C497.7,138.3,497.4,139.2,497.3,140.3z"/>
	</g>
</g>
<g id="Livello_3" class="st2">
</g>
</svg>
